<?xml version="1.0" encoding="UTF-8"?> <svg xmlns="http://www.w3.org/2000/svg" width="800" height="800" viewBox="0 0 800 800" fill="none"><path d="M554.133 464L644.7 554.533L399.6 799.633L154.533 554.567L245.1 464L399.633 619.333L554.133 464ZM708.7 309.467L800 400L709.5 490.533L618.933 400L708.7 309.467ZM399.633 309.467L490.167 399.2L399.6 489.767L309.067 400L399.6 309.5L399.633 309.467ZM90.5333 309.467L180.333 400L90.6 489.733L0 400L90.5333 309.467ZM399.667 0.333344L644.733 244.667L554.167 335.167L399.633 180.633L245.133 335.967L154.567 245.433L399.633 0.366677L399.667 0.333344Z" fill="#F3BA2F"></path></svg> 